<?xml version="1.0"?>
<svg xmlns="http://www.w3.org/2000/svg" xmlns:xlink="http://www.w3.org/1999/xlink" xmlns:svgjs="http://svgjs.com/svgjs" version="1.1" width="512" height="512" x="0" y="0" viewBox="0 0 512 512" style="enable-background:new 0 0 512 512" xml:space="preserve" class=""><g><g xmlns="http://www.w3.org/2000/svg"><ellipse cx="360.354" cy="357.854" fill="#bf8ca6" rx="57.574" ry="57.574" transform="matrix(.707 -.707 .707 .707 -147.495 359.622)" data-original="#d1c4e9" style="" class=""/><path d="m360.354 300.279c-31.797 0-57.574 25.777-57.574 57.574 0 7.526 1.459 14.708 4.086 21.298 6.25-2.45 12.338-5.341 18.204-8.693 5.392.673 10.832 1.013 16.233 1.013 27.311 0 53.716-8.614 75.636-24.212-4.975-26.734-28.408-46.98-56.585-46.98z" fill="#e2add7" data-original="#b0ade2" style="" class=""/><ellipse cx="246.984" cy="440.859" fill="#fda2bb" rx="36.056" ry="36.056" transform="matrix(.383 -.924 .924 .383 -254.833 500.332)" data-original="#a2ddfd" style="" class=""/><path d="m447.543 154.077c-14.895-36.786-52.882-60.127-93.452-55.359-5.14.604-10.165-1.587-13.402-5.626-19.877-24.808-50.427-40.695-84.689-40.695s-64.812 15.886-84.689 40.694c-3.236 4.039-8.261 6.23-13.402 5.626-40.558-4.766-78.553 18.564-93.452 55.359-1.798 4.44-5.669 7.691-10.323 8.825-31.068 7.57-54.134 35.564-54.134 68.962 0 44.214 39.836 77.146 82.44 70.079 5.112-.848 10.237 1.112 13.673 4.991 22.576 25.477 56.87 38.084 91.414 32.206 3.661-.623 7.443.003 10.582 1.988 16.752 10.594 36.605 16.727 57.891 16.727s41.139-6.133 57.891-16.727c3.139-1.985 6.92-2.611 10.581-1.988 34.587 5.887 68.869-6.759 91.421-32.213 3.432-3.874 8.55-5.833 13.655-4.985 42.648 7.087 82.452-25.899 82.452-70.078 0-33.398-23.067-61.392-54.135-68.961-4.653-1.134-8.525-4.385-10.322-8.825z" fill="#f8d2d2" data-original="#f8d2e3" style="" class=""/><path d="m288.951 352.741c-42.869-5.749-71.646-32.253-63.558-66.314 1.45-6.105-2.285-12.159-8.323-13.864-43.826-12.375-49.977-62.836-23.898-95.549 3.476-4.361 3.288-10.556-.322-14.807-22.725-26.764-17.597-58.587-.557-89.127-7.854 5.71-14.917 12.443-20.982 20.012-3.287 4.102-8.477 6.188-13.7 5.592-40.446-4.617-78.29 18.687-93.153 55.392-1.798 4.441-5.671 7.693-10.326 8.828-31.067 7.569-54.132 35.562-54.132 68.959 0 44.213 39.834 77.145 82.436 70.08 5-.829 10.08.902 13.427 4.707 22.625 25.727 57.154 38.448 91.908 32.447 3.576-.617 7.271.09 10.338 2.029 16.752 10.594 36.605 16.727 57.891 16.727 11.491.001 22.558-1.801 32.951-5.112z" fill="#f1b3c1" data-original="#f1b3c1" style="" class=""/><g><g fill="#fff"><ellipse cx="180.533" cy="241.531" rx="27.846" ry="22.175" fill="#ffffff" data-original="#ffffff" style="" class=""/><ellipse cx="331.467" cy="241.531" rx="27.846" ry="22.175" fill="#ffffff" data-original="#ffffff" style="" class=""/></g><g fill="#4e5660"><path d="m196.762 226.625c-7.673 0-14.971-3.323-20.021-9.117-2.722-3.122-2.397-7.86.725-10.581 3.124-2.722 7.861-2.397 10.582.725 2.201 2.525 5.378 3.974 8.715 3.974s6.513-1.448 8.713-3.973c2.722-3.123 7.457-3.448 10.582-.727 3.122 2.722 3.448 7.459.727 10.582-5.052 5.794-12.349 9.117-20.023 9.117z" fill="#4e5660" data-original="#4e5660" style="" class=""/><path d="m315.238 226.625c-7.673 0-14.97-3.323-20.021-9.117-2.722-3.122-2.397-7.86.725-10.581 3.124-2.722 7.861-2.397 10.582.725 2.201 2.525 5.378 3.974 8.714 3.974 3.337 0 6.514-1.448 8.715-3.974 2.721-3.123 7.458-3.448 10.582-.725 3.122 2.722 3.446 7.459.725 10.581-5.051 5.794-12.349 9.117-20.022 9.117z" fill="#4e5660" data-original="#4e5660" style="" class=""/><ellipse cx="256" cy="232.191" rx="11.109" ry="11.847" fill="#4e5660" data-original="#4e5660" style="" class=""/></g></g><g><path d="m394.621 203.31h-30.493c-2.787 0-5.345-1.546-6.641-4.013-1.295-2.468-1.116-5.45.467-7.745l21.151-30.67h-14.207c-4.143 0-7.5-3.358-7.5-7.5s3.357-7.5 7.5-7.5h28.49c2.787 0 5.345 1.545 6.641 4.013 1.295 2.468 1.116 5.45-.467 7.745l-21.151 30.671h16.21c4.143 0 7.5 3.358 7.5 7.5 0 4.141-3.357 7.499-7.5 7.499z" fill="#e2add7" data-original="#b0ade2" style="" class=""/></g><g><g><path d="m463.85 113.98h-45.921c-2.787 0-5.345-1.545-6.641-4.013-1.295-2.468-1.116-5.45.467-7.745l35.956-52.138h-28.623c-4.143 0-7.5-3.358-7.5-7.5s3.357-7.5 7.5-7.5h42.906c2.787 0 5.345 1.545 6.641 4.013 1.295 2.468 1.116 5.45-.467 7.745l-35.956 52.138h31.638c4.143 0 7.5 3.358 7.5 7.5s-3.358 7.5-7.5 7.5z" fill="#e2add7" data-original="#b0ade2" style="" class=""/></g></g></g></g></svg>
